<?xml version="1.0" encoding="utf-8"?>
<!-- Generator: Adobe Illustrator 24.3.0, SVG Export Plug-In . SVG Version: 6.00 Build 0)  -->
<svg version="1.1" xmlns="http://www.w3.org/2000/svg" xmlns:xlink="http://www.w3.org/1999/xlink" x="0px" y="0px"
	 viewBox="0 0 500 500" style="enable-background:new 0 0 500 500;" xml:space="preserve">
<style type="text/css">
	.st0{fill:#FFFFFF;}
	.st1{fill:#E56031;}
	.st2{fill:#E56031;stroke:#E56031;stroke-miterlimit:10;}
	.st3{fill:#043730;stroke:#FFFFFF;stroke-miterlimit:10;}
	.st4{fill:#FFFFFF;stroke:#E56031;stroke-linecap:round;stroke-linejoin:round;stroke-miterlimit:10;}
	.st5{fill:#FFFFFF;stroke:#E56031;stroke-miterlimit:10;}
	.st6{fill:#043730;stroke:#E56031;stroke-miterlimit:10;}
	.st7{fill:#043730;}
	.st8{fill:none;stroke:#E56031;stroke-linecap:round;stroke-linejoin:round;stroke-miterlimit:10;}
	.st9{fill:none;stroke:#E56031;stroke-linecap:round;stroke-miterlimit:10;}
	.st10{font-family:'Calistoga-Regular';}
	.st11{font-size:48px;}
	.st12{font-family:'Baloo2-SemiBold';}
	.st13{font-size:14.519px;}
</style>
<g id="BACKGROUND">
	<rect class="st0" width="500" height="500"/>
</g>
<g id="OBJECTS">
	<g>
		<g>
			<path class="st1" d="M131.8,212.9c5.1-4.7,16.1-15.1,30.9-10c11.3,3.9,35.2,13.1,50.8,17.4l3.7-0.6
				c-8.1-25.4-33.4-43.9-63.4-43.9c-36.5,0-66.1,27.4-66.1,61.2c0,33.8,29.6,61.2,66.1,61.2c24.8,0,46.3-12.6,57.7-31.2
				c-21.1-0.3-26.2-15.2-31.2-12.3c-1.7,1-5.5,3.2-10,5.4l5.1,5.6c10,11.6-2.3,19.2-2.3,19.2l-3.1-3.3c-2,4.7-6.3,7.4-6.3,7.4
				l-5-5.2c-1.4,1.2-2.4,1.9-2.4,1.9l-15.2-15.9l3.8-13.7c0,0,0.3,0.1,1.2,0.4c3.4-9.4,21.3-23.1,26.6-27l-1.7-0.8h-20.5
				c0,0-1.1,3.7-10,9.2c10.6,26.8-11.9,31.1-11.9,31.1s-7.2-23.7-11-32.5C113.7,227.7,126.7,217.6,131.8,212.9z"/>
			<path class="st2" d="M164.4,262.6c-0.4,0.2-0.9,0.3-1.3,0.5l0.8,0.9L164.4,262.6z"/>
		</g>
		<path class="st3" d="M131.9,248c10.8,15.9,20.6,6.8,20.6,6.8l12.1-32L145,221l-14.3,21.4L131.9,248z"/>
		<path class="st4" d="M223.9,218.5l-10.4,1.8c-15.7-4.3-39.5-13.5-50.8-17.4c-14.8-5.1-25.8,5.3-30.9,10
			c-5.1,4.7-18.2,14.9-14.4,23.5c3.9,8.9,11,32.5,11,32.5s22.4-4.3,11.9-31.1c8.9-5.5,10-9.2,10-9.2h20.5l55.9,27.4"/>
		<path class="st5" d="M161,272.2l12,12.5c0,0,12.4-7.6,2.3-19.2l-8.7-9.6L161,272.2z"/>
		<path class="st1" d="M157.9,277.8l4.7,5.2c2,2.2,5.5,2.5,7.8,0.7c2.4-1.8,2.7-5,0.7-7.2l-4.7-5.2L157.9,277.8z"/>
		<path class="st5" d="M149.6,274.3l14,14.6c0,0,14.4-8.8,2.7-22.3l-10.1-11.2L149.6,274.3z"/>
		<path class="st1" d="M148.8,279.3l4.7,5.2c2,2.2,5.5,2.5,7.8,0.7c2.4-1.8,2.7-5,0.7-7.2l-4.7-5.2L148.8,279.3z"/>
		<path class="st5" d="M140.9,269.7l15.2,15.9c0,0,15.7-9.6,3-24.3c-11.6-4.3-14.4-5.3-14.4-5.3L140.9,269.7z"/>
		<path class="st1" d="M141.2,275.9l4.7,5.2c2,2.2,5.5,2.5,7.8,0.7c2.4-1.8,2.7-5,0.7-7.2l-4.7-5.2L141.2,275.9z"/>
		<path class="st6" d="M160.2,262.8c0,0,23.7,15.5,54,4.1c30.3-11.4-26.7-25.7-26.7-25.7l-21.4,10.4L160.2,262.8z"/>
		<g>
			<path class="st7" d="M180.3,192.6l-58.2,98.1c3.8,1.9,7.9,3.5,12.1,4.8l53.8-90.6"/>
			<polyline class="st7" points="188,204.8 200.4,183.8 188.9,178 180.3,192.6 			"/>
			<path class="st7" d="M120.4,295.3l-0.9,13.4l12.3-8.5C127.8,298.9,124,297.3,120.4,295.3z"/>
		</g>
		<path class="st4" d="M241.9,255.6c-12.7,2.4-21.6,11-28.6,11.4c-22.7,0.6-28-15.3-33-12.3c-5.1,2.9-28.4,16.8-34.3,7.2
			c-5.9-9.6,28-33.5,28-33.5"/>
		<path class="st1" d="M157.4,249.1l-6.1,3.8c-2.5,1.6-3.2,4.8-1.5,7.1c1.7,2.3,5.2,3,7.7,1.4l6.1-3.8L157.4,249.1z"/>
		<path class="st1" d="M118.9,254.3l1.9,6.6c0.8,2.7,3.8,4.4,6.8,3.6c3-0.7,4.7-3.5,3.9-6.3l-1.9-6.6L118.9,254.3z"/>
		<path class="st8" d="M129.3,235.3c0,0,4.8,2.7,11,2.4"/>
		<path class="st8" d="M146.5,223.4c0,0,1.1,3.3,3.7,5.2"/>
		<path class="st1" d="M202.4,181.4l0.7-1.1c1.9-3.1,0.6-7-2.7-8.7c-3.3-1.7-7.6-0.6-9.4,2.5l-0.7,1.1L202.4,181.4z"/>
		<path class="st9" d="M174,228.3c0,0,6.2-3.7,14.1-3.6"/>
		<line class="st9" x1="158.2" y1="228.8" x2="144.5" y2="252.1"/>
	</g>
</g>
<g id="TEXTS">
	<g>
		<text transform="matrix(1 0 0 1 237.916 253.9749)" class="st7 st10 st11">Education</text>
	</g>
	<text transform="matrix(1 0 0 1 249.8814 276.5801)" class="st1 st12 st13">lotto university</text>
</g>
</svg>
